<?xml version="1.0" encoding="utf-8"?>
<!-- Generator: Adobe Illustrator 16.0.4, SVG Export Plug-In . SVG Version: 6.00 Build 0)  -->
<!DOCTYPE svg PUBLIC "-//W3C//DTD SVG 1.1//EN" "http://www.w3.org/Graphics/SVG/1.1/DTD/svg11.dtd">
<svg version="1.1" id="Layer_1" xmlns="http://www.w3.org/2000/svg" xmlns:xlink="http://www.w3.org/1999/xlink" x="0px" y="0px"
	 width="99.21px" height="99.21px" viewBox="0 0 99.21 99.21" enable-background="new 0 0 99.21 99.21" xml:space="preserve">
<path d="M46.857,18.462c-17.203,0-31.199,13.995-31.199,31.198c0,17.203,13.996,31.198,31.199,31.198S78.056,66.863,78.056,49.66
	C78.056,32.457,64.06,18.462,46.857,18.462z M46.857,74.819c-13.874,0-25.16-11.284-25.16-25.159c0-13.873,11.287-25.16,25.16-25.16
	s25.161,11.287,25.161,25.16C72.018,63.535,60.73,74.819,46.857,74.819z"/>
<path fill="none" d="M25.794,25.673c-0.234,0.242-0.485,0.473-0.742,0.697v5.341h8.722v-6.039L25.794,25.673L25.794,25.673z"/>
<rect id="_x3C_Slice_x3E__1_" x="30.419" y="35.738" fill="none" width="2.013" height="1.341"/>
<path d="M80.783,42.622c0.557,2.172,0.477,4.606,0.309,7.079c8.186,5.227,9.592,8.382,9.533,8.899
	c-0.012,0.019-1.566,1.871-10.529,1.216c-4.623-0.339-10.141-1.286-16.094-2.727l0.002,0.055c0,2.044-0.541,3.961-1.479,5.628
	c6.317,1.53,12.194,2.538,17.142,2.901c9.635,0.703,15.026-0.963,16.486-5.1C98.181,54.833,90.748,48.331,80.783,42.622z"/>
<path d="M43.045,50.566c-9.452-3.579-18-7.693-24.392-11.762c-8.274-5.265-9.69-8.443-9.632-8.964c0.012-0.019,1.323-2,10.275-1.348
	c1.199-2.211,3.12-3.993,5.104-5.4c-1.258-0.149-3.089-0.227-4.417-0.324c-9.636-0.705-15.03,0.962-16.49,5.098
	c-1.559,4.415,2.131,9.459,11.281,15.425c6.815,4.442,16.022,8.919,26.248,12.787C41.211,54.041,41.932,52.158,43.045,50.566z"/>
<circle cx="52.309" cy="57.291" r="7.8"/>
</svg>
